%TF.GenerationSoftware,KiCad,Pcbnew,(6.0.2-0)*%
%TF.CreationDate,2022-03-19T15:32:59-04:00*%
%TF.ProjectId,IMU_BB_Rev2,494d555f-4242-45f5-9265-76322e6b6963,rev?*%
%TF.SameCoordinates,Original*%
%TF.FileFunction,Legend,Top*%
%TF.FilePolarity,Positive*%
%FSLAX46Y46*%
G04 Gerber Fmt 4.6, Leading zero omitted, Abs format (unit mm)*
G04 Created by KiCad (PCBNEW (6.0.2-0)) date 2022-03-19 15:32:59*
%MOMM*%
%LPD*%
G01*
G04 APERTURE LIST*
G04 Aperture macros list*
%AMRoundRect*
0 Rectangle with rounded corners*
0 $1 Rounding radius*
0 $2 $3 $4 $5 $6 $7 $8 $9 X,Y pos of 4 corners*
0 Add a 4 corners polygon primitive as box body*
4,1,4,$2,$3,$4,$5,$6,$7,$8,$9,$2,$3,0*
0 Add four circle primitives for the rounded corners*
1,1,$1+$1,$2,$3*
1,1,$1+$1,$4,$5*
1,1,$1+$1,$6,$7*
1,1,$1+$1,$8,$9*
0 Add four rect primitives between the rounded corners*
20,1,$1+$1,$2,$3,$4,$5,0*
20,1,$1+$1,$4,$5,$6,$7,0*
20,1,$1+$1,$6,$7,$8,$9,0*
20,1,$1+$1,$8,$9,$2,$3,0*%
G04 Aperture macros list end*
%ADD10C,0.025000*%
%ADD11C,0.075000*%
%ADD12C,0.050000*%
%ADD13C,0.120000*%
%ADD14C,0.127000*%
%ADD15C,0.150000*%
%ADD16RoundRect,0.225000X0.250000X-0.225000X0.250000X0.225000X-0.250000X0.225000X-0.250000X-0.225000X0*%
%ADD17RoundRect,0.200000X0.275000X-0.200000X0.275000X0.200000X-0.275000X0.200000X-0.275000X-0.200000X0*%
%ADD18R,1.700000X1.700000*%
%ADD19O,1.700000X1.700000*%
%ADD20R,0.475000X0.250000*%
%ADD21R,0.250000X0.475000*%
G04 APERTURE END LIST*
D10*
X68414738Y-63367142D02*
X68314738Y-63367142D01*
X68414738Y-63319523D02*
X68314738Y-63319523D01*
X68386166Y-63286190D01*
X68314738Y-63252857D01*
X68414738Y-63252857D01*
X68314738Y-63205238D02*
X68395690Y-63205238D01*
X68405214Y-63200476D01*
X68409976Y-63195714D01*
X68414738Y-63186190D01*
X68414738Y-63167142D01*
X68409976Y-63157619D01*
X68405214Y-63152857D01*
X68395690Y-63148095D01*
X68314738Y-63148095D01*
X68362357Y-62990952D02*
X68367119Y-62976666D01*
X68371880Y-62971904D01*
X68381404Y-62967142D01*
X68395690Y-62967142D01*
X68405214Y-62971904D01*
X68409976Y-62976666D01*
X68414738Y-62986190D01*
X68414738Y-63024285D01*
X68314738Y-63024285D01*
X68314738Y-62990952D01*
X68319500Y-62981428D01*
X68324261Y-62976666D01*
X68333785Y-62971904D01*
X68343309Y-62971904D01*
X68352833Y-62976666D01*
X68357595Y-62981428D01*
X68362357Y-62990952D01*
X68362357Y-63024285D01*
X68414738Y-62924285D02*
X68348071Y-62924285D01*
X68367119Y-62924285D02*
X68357595Y-62919523D01*
X68352833Y-62914761D01*
X68348071Y-62905238D01*
X68348071Y-62895714D01*
X68409976Y-62824285D02*
X68414738Y-62833809D01*
X68414738Y-62852857D01*
X68409976Y-62862380D01*
X68400452Y-62867142D01*
X68362357Y-62867142D01*
X68352833Y-62862380D01*
X68348071Y-62852857D01*
X68348071Y-62833809D01*
X68352833Y-62824285D01*
X68362357Y-62819523D01*
X68371880Y-62819523D01*
X68381404Y-62867142D01*
X68414738Y-62733809D02*
X68362357Y-62733809D01*
X68352833Y-62738571D01*
X68348071Y-62748095D01*
X68348071Y-62767142D01*
X68352833Y-62776666D01*
X68409976Y-62733809D02*
X68414738Y-62743333D01*
X68414738Y-62767142D01*
X68409976Y-62776666D01*
X68400452Y-62781428D01*
X68390928Y-62781428D01*
X68381404Y-62776666D01*
X68376642Y-62767142D01*
X68376642Y-62743333D01*
X68371880Y-62733809D01*
X68414738Y-62686190D02*
X68314738Y-62686190D01*
X68376642Y-62676666D02*
X68414738Y-62648095D01*
X68348071Y-62648095D02*
X68386166Y-62686190D01*
X68414738Y-62590952D02*
X68409976Y-62600476D01*
X68405214Y-62605238D01*
X68395690Y-62610000D01*
X68367119Y-62610000D01*
X68357595Y-62605238D01*
X68352833Y-62600476D01*
X68348071Y-62590952D01*
X68348071Y-62576666D01*
X68352833Y-62567142D01*
X68357595Y-62562380D01*
X68367119Y-62557619D01*
X68395690Y-62557619D01*
X68405214Y-62562380D01*
X68409976Y-62567142D01*
X68414738Y-62576666D01*
X68414738Y-62590952D01*
X68348071Y-62471904D02*
X68414738Y-62471904D01*
X68348071Y-62514761D02*
X68400452Y-62514761D01*
X68409976Y-62510000D01*
X68414738Y-62500476D01*
X68414738Y-62486190D01*
X68409976Y-62476666D01*
X68405214Y-62471904D01*
X68348071Y-62438571D02*
X68348071Y-62400476D01*
X68314738Y-62424285D02*
X68400452Y-62424285D01*
X68409976Y-62419523D01*
X68414738Y-62410000D01*
X68414738Y-62400476D01*
X68362357Y-62257619D02*
X68367119Y-62243333D01*
X68371880Y-62238571D01*
X68381404Y-62233809D01*
X68395690Y-62233809D01*
X68405214Y-62238571D01*
X68409976Y-62243333D01*
X68414738Y-62252857D01*
X68414738Y-62290952D01*
X68314738Y-62290952D01*
X68314738Y-62257619D01*
X68319500Y-62248095D01*
X68324261Y-62243333D01*
X68333785Y-62238571D01*
X68343309Y-62238571D01*
X68352833Y-62243333D01*
X68357595Y-62248095D01*
X68362357Y-62257619D01*
X68362357Y-62290952D01*
X68414738Y-62176666D02*
X68409976Y-62186190D01*
X68405214Y-62190952D01*
X68395690Y-62195714D01*
X68367119Y-62195714D01*
X68357595Y-62190952D01*
X68352833Y-62186190D01*
X68348071Y-62176666D01*
X68348071Y-62162380D01*
X68352833Y-62152857D01*
X68357595Y-62148095D01*
X68367119Y-62143333D01*
X68395690Y-62143333D01*
X68405214Y-62148095D01*
X68409976Y-62152857D01*
X68414738Y-62162380D01*
X68414738Y-62176666D01*
X68414738Y-62057619D02*
X68362357Y-62057619D01*
X68352833Y-62062380D01*
X68348071Y-62071904D01*
X68348071Y-62090952D01*
X68352833Y-62100476D01*
X68409976Y-62057619D02*
X68414738Y-62067142D01*
X68414738Y-62090952D01*
X68409976Y-62100476D01*
X68400452Y-62105238D01*
X68390928Y-62105238D01*
X68381404Y-62100476D01*
X68376642Y-62090952D01*
X68376642Y-62067142D01*
X68371880Y-62057619D01*
X68414738Y-62010000D02*
X68348071Y-62010000D01*
X68367119Y-62010000D02*
X68357595Y-62005238D01*
X68352833Y-62000476D01*
X68348071Y-61990952D01*
X68348071Y-61981428D01*
X68414738Y-61905238D02*
X68314738Y-61905238D01*
X68409976Y-61905238D02*
X68414738Y-61914761D01*
X68414738Y-61933809D01*
X68409976Y-61943333D01*
X68405214Y-61948095D01*
X68395690Y-61952857D01*
X68367119Y-61952857D01*
X68357595Y-61948095D01*
X68352833Y-61943333D01*
X68348071Y-61933809D01*
X68348071Y-61914761D01*
X68352833Y-61905238D01*
X68414738Y-61724285D02*
X68367119Y-61757619D01*
X68414738Y-61781428D02*
X68314738Y-61781428D01*
X68314738Y-61743333D01*
X68319500Y-61733809D01*
X68324261Y-61729047D01*
X68333785Y-61724285D01*
X68348071Y-61724285D01*
X68357595Y-61729047D01*
X68362357Y-61733809D01*
X68367119Y-61743333D01*
X68367119Y-61781428D01*
X68409976Y-61643333D02*
X68414738Y-61652857D01*
X68414738Y-61671904D01*
X68409976Y-61681428D01*
X68400452Y-61686190D01*
X68362357Y-61686190D01*
X68352833Y-61681428D01*
X68348071Y-61671904D01*
X68348071Y-61652857D01*
X68352833Y-61643333D01*
X68362357Y-61638571D01*
X68371880Y-61638571D01*
X68381404Y-61686190D01*
X68348071Y-61605238D02*
X68414738Y-61581428D01*
X68348071Y-61557619D01*
X68324261Y-61448095D02*
X68319500Y-61443333D01*
X68314738Y-61433809D01*
X68314738Y-61410000D01*
X68319500Y-61400476D01*
X68324261Y-61395714D01*
X68333785Y-61390952D01*
X68343309Y-61390952D01*
X68357595Y-61395714D01*
X68414738Y-61452857D01*
X68414738Y-61390952D01*
X68405214Y-61348095D02*
X68409976Y-61343333D01*
X68414738Y-61348095D01*
X68409976Y-61352857D01*
X68405214Y-61348095D01*
X68414738Y-61348095D01*
X68314738Y-61281428D02*
X68314738Y-61271904D01*
X68319500Y-61262380D01*
X68324261Y-61257619D01*
X68333785Y-61252857D01*
X68352833Y-61248095D01*
X68376642Y-61248095D01*
X68395690Y-61252857D01*
X68405214Y-61257619D01*
X68409976Y-61262380D01*
X68414738Y-61271904D01*
X68414738Y-61281428D01*
X68409976Y-61290952D01*
X68405214Y-61295714D01*
X68395690Y-61300476D01*
X68376642Y-61305238D01*
X68352833Y-61305238D01*
X68333785Y-61300476D01*
X68324261Y-61295714D01*
X68319500Y-61290952D01*
X68314738Y-61281428D01*
X68523357Y-63098095D02*
X68523357Y-63064761D01*
X68575738Y-63050476D02*
X68575738Y-63098095D01*
X68475738Y-63098095D01*
X68475738Y-63050476D01*
X68575738Y-62964761D02*
X68475738Y-62964761D01*
X68570976Y-62964761D02*
X68575738Y-62974285D01*
X68575738Y-62993333D01*
X68570976Y-63002857D01*
X68566214Y-63007619D01*
X68556690Y-63012380D01*
X68528119Y-63012380D01*
X68518595Y-63007619D01*
X68513833Y-63002857D01*
X68509071Y-62993333D01*
X68509071Y-62974285D01*
X68513833Y-62964761D01*
X68575738Y-62917142D02*
X68509071Y-62917142D01*
X68475738Y-62917142D02*
X68480500Y-62921904D01*
X68485261Y-62917142D01*
X68480500Y-62912380D01*
X68475738Y-62917142D01*
X68485261Y-62917142D01*
X68509071Y-62883809D02*
X68509071Y-62845714D01*
X68475738Y-62869523D02*
X68561452Y-62869523D01*
X68570976Y-62864761D01*
X68575738Y-62855238D01*
X68575738Y-62845714D01*
X68570976Y-62774285D02*
X68575738Y-62783809D01*
X68575738Y-62802857D01*
X68570976Y-62812380D01*
X68561452Y-62817142D01*
X68523357Y-62817142D01*
X68513833Y-62812380D01*
X68509071Y-62802857D01*
X68509071Y-62783809D01*
X68513833Y-62774285D01*
X68523357Y-62769523D01*
X68532880Y-62769523D01*
X68542404Y-62817142D01*
X68575738Y-62683809D02*
X68475738Y-62683809D01*
X68570976Y-62683809D02*
X68575738Y-62693333D01*
X68575738Y-62712380D01*
X68570976Y-62721904D01*
X68566214Y-62726666D01*
X68556690Y-62731428D01*
X68528119Y-62731428D01*
X68518595Y-62726666D01*
X68513833Y-62721904D01*
X68509071Y-62712380D01*
X68509071Y-62693333D01*
X68513833Y-62683809D01*
X68575738Y-62560000D02*
X68475738Y-62560000D01*
X68513833Y-62560000D02*
X68509071Y-62550476D01*
X68509071Y-62531428D01*
X68513833Y-62521904D01*
X68518595Y-62517142D01*
X68528119Y-62512380D01*
X68556690Y-62512380D01*
X68566214Y-62517142D01*
X68570976Y-62521904D01*
X68575738Y-62531428D01*
X68575738Y-62550476D01*
X68570976Y-62560000D01*
X68509071Y-62479047D02*
X68575738Y-62455238D01*
X68509071Y-62431428D02*
X68575738Y-62455238D01*
X68599547Y-62464761D01*
X68604309Y-62469523D01*
X68609071Y-62479047D01*
X68575738Y-62317142D02*
X68475738Y-62317142D01*
X68575738Y-62260000D02*
X68518595Y-62302857D01*
X68475738Y-62260000D02*
X68532880Y-62317142D01*
X68509071Y-62226666D02*
X68575738Y-62202857D01*
X68509071Y-62179047D02*
X68575738Y-62202857D01*
X68599547Y-62212380D01*
X68604309Y-62217142D01*
X68609071Y-62226666D01*
X68575738Y-62126666D02*
X68570976Y-62136190D01*
X68561452Y-62140952D01*
X68475738Y-62140952D01*
X68575738Y-62088571D02*
X68509071Y-62088571D01*
X68475738Y-62088571D02*
X68480500Y-62093333D01*
X68485261Y-62088571D01*
X68480500Y-62083809D01*
X68475738Y-62088571D01*
X68485261Y-62088571D01*
X68570976Y-62002857D02*
X68575738Y-62012380D01*
X68575738Y-62031428D01*
X68570976Y-62040952D01*
X68561452Y-62045714D01*
X68523357Y-62045714D01*
X68513833Y-62040952D01*
X68509071Y-62031428D01*
X68509071Y-62012380D01*
X68513833Y-62002857D01*
X68523357Y-61998095D01*
X68532880Y-61998095D01*
X68542404Y-62045714D01*
X68547166Y-61883809D02*
X68547166Y-61836190D01*
X68575738Y-61893333D02*
X68475738Y-61860000D01*
X68575738Y-61826666D01*
X68509071Y-61793333D02*
X68575738Y-61793333D01*
X68518595Y-61793333D02*
X68513833Y-61788571D01*
X68509071Y-61779047D01*
X68509071Y-61764761D01*
X68513833Y-61755238D01*
X68523357Y-61750476D01*
X68575738Y-61750476D01*
X68509071Y-61660000D02*
X68590023Y-61660000D01*
X68599547Y-61664761D01*
X68604309Y-61669523D01*
X68609071Y-61679047D01*
X68609071Y-61693333D01*
X68604309Y-61702857D01*
X68570976Y-61660000D02*
X68575738Y-61669523D01*
X68575738Y-61688571D01*
X68570976Y-61698095D01*
X68566214Y-61702857D01*
X68556690Y-61707619D01*
X68528119Y-61707619D01*
X68518595Y-61702857D01*
X68513833Y-61698095D01*
X68509071Y-61688571D01*
X68509071Y-61669523D01*
X68513833Y-61660000D01*
X68570976Y-61574285D02*
X68575738Y-61583809D01*
X68575738Y-61602857D01*
X68570976Y-61612380D01*
X68561452Y-61617142D01*
X68523357Y-61617142D01*
X68513833Y-61612380D01*
X68509071Y-61602857D01*
X68509071Y-61583809D01*
X68513833Y-61574285D01*
X68523357Y-61569523D01*
X68532880Y-61569523D01*
X68542404Y-61617142D01*
X68575738Y-61512380D02*
X68570976Y-61521904D01*
X68561452Y-61526666D01*
X68475738Y-61526666D01*
D11*
X78725238Y-59300000D02*
X78687142Y-59280952D01*
X78630000Y-59280952D01*
X78572857Y-59300000D01*
X78534761Y-59338095D01*
X78515714Y-59376190D01*
X78496666Y-59452380D01*
X78496666Y-59509523D01*
X78515714Y-59585714D01*
X78534761Y-59623809D01*
X78572857Y-59661904D01*
X78630000Y-59680952D01*
X78668095Y-59680952D01*
X78725238Y-59661904D01*
X78744285Y-59642857D01*
X78744285Y-59509523D01*
X78668095Y-59509523D01*
X78915714Y-59680952D02*
X78915714Y-59280952D01*
X79144285Y-59680952D01*
X79144285Y-59280952D01*
X79334761Y-59680952D02*
X79334761Y-59280952D01*
X79430000Y-59280952D01*
X79487142Y-59300000D01*
X79525238Y-59338095D01*
X79544285Y-59376190D01*
X79563333Y-59452380D01*
X79563333Y-59509523D01*
X79544285Y-59585714D01*
X79525238Y-59623809D01*
X79487142Y-59661904D01*
X79430000Y-59680952D01*
X79334761Y-59680952D01*
X72453809Y-59621904D02*
X72510952Y-59640952D01*
X72606190Y-59640952D01*
X72644285Y-59621904D01*
X72663333Y-59602857D01*
X72682380Y-59564761D01*
X72682380Y-59526666D01*
X72663333Y-59488571D01*
X72644285Y-59469523D01*
X72606190Y-59450476D01*
X72530000Y-59431428D01*
X72491904Y-59412380D01*
X72472857Y-59393333D01*
X72453809Y-59355238D01*
X72453809Y-59317142D01*
X72472857Y-59279047D01*
X72491904Y-59260000D01*
X72530000Y-59240952D01*
X72625238Y-59240952D01*
X72682380Y-59260000D01*
X73082380Y-59602857D02*
X73063333Y-59621904D01*
X73006190Y-59640952D01*
X72968095Y-59640952D01*
X72910952Y-59621904D01*
X72872857Y-59583809D01*
X72853809Y-59545714D01*
X72834761Y-59469523D01*
X72834761Y-59412380D01*
X72853809Y-59336190D01*
X72872857Y-59298095D01*
X72910952Y-59260000D01*
X72968095Y-59240952D01*
X73006190Y-59240952D01*
X73063333Y-59260000D01*
X73082380Y-59279047D01*
X73444285Y-59640952D02*
X73253809Y-59640952D01*
X73253809Y-59240952D01*
X69334285Y-59601904D02*
X69391428Y-59620952D01*
X69486666Y-59620952D01*
X69524761Y-59601904D01*
X69543809Y-59582857D01*
X69562857Y-59544761D01*
X69562857Y-59506666D01*
X69543809Y-59468571D01*
X69524761Y-59449523D01*
X69486666Y-59430476D01*
X69410476Y-59411428D01*
X69372380Y-59392380D01*
X69353333Y-59373333D01*
X69334285Y-59335238D01*
X69334285Y-59297142D01*
X69353333Y-59259047D01*
X69372380Y-59240000D01*
X69410476Y-59220952D01*
X69505714Y-59220952D01*
X69562857Y-59240000D01*
X69734285Y-59620952D02*
X69734285Y-59220952D01*
X69829523Y-59220952D01*
X69886666Y-59240000D01*
X69924761Y-59278095D01*
X69943809Y-59316190D01*
X69962857Y-59392380D01*
X69962857Y-59449523D01*
X69943809Y-59525714D01*
X69924761Y-59563809D01*
X69886666Y-59601904D01*
X69829523Y-59620952D01*
X69734285Y-59620952D01*
X70115238Y-59506666D02*
X70305714Y-59506666D01*
X70077142Y-59620952D02*
X70210476Y-59220952D01*
X70343809Y-59620952D01*
X75180000Y-59508571D02*
X75484761Y-59508571D01*
X75332380Y-59660952D02*
X75332380Y-59356190D01*
X75637142Y-59260952D02*
X75884761Y-59260952D01*
X75751428Y-59413333D01*
X75808571Y-59413333D01*
X75846666Y-59432380D01*
X75865714Y-59451428D01*
X75884761Y-59489523D01*
X75884761Y-59584761D01*
X75865714Y-59622857D01*
X75846666Y-59641904D01*
X75808571Y-59660952D01*
X75694285Y-59660952D01*
X75656190Y-59641904D01*
X75637142Y-59622857D01*
X76056190Y-59622857D02*
X76075238Y-59641904D01*
X76056190Y-59660952D01*
X76037142Y-59641904D01*
X76056190Y-59622857D01*
X76056190Y-59660952D01*
X76208571Y-59260952D02*
X76456190Y-59260952D01*
X76322857Y-59413333D01*
X76380000Y-59413333D01*
X76418095Y-59432380D01*
X76437142Y-59451428D01*
X76456190Y-59489523D01*
X76456190Y-59584761D01*
X76437142Y-59622857D01*
X76418095Y-59641904D01*
X76380000Y-59660952D01*
X76265714Y-59660952D01*
X76227619Y-59641904D01*
X76208571Y-59622857D01*
X76570476Y-59260952D02*
X76703809Y-59660952D01*
X76837142Y-59260952D01*
D12*
%TO.C,C2*%
X77420000Y-63717142D02*
X77405714Y-63731428D01*
X77362857Y-63745714D01*
X77334285Y-63745714D01*
X77291428Y-63731428D01*
X77262857Y-63702857D01*
X77248571Y-63674285D01*
X77234285Y-63617142D01*
X77234285Y-63574285D01*
X77248571Y-63517142D01*
X77262857Y-63488571D01*
X77291428Y-63460000D01*
X77334285Y-63445714D01*
X77362857Y-63445714D01*
X77405714Y-63460000D01*
X77420000Y-63474285D01*
X77534285Y-63474285D02*
X77548571Y-63460000D01*
X77577142Y-63445714D01*
X77648571Y-63445714D01*
X77677142Y-63460000D01*
X77691428Y-63474285D01*
X77705714Y-63502857D01*
X77705714Y-63531428D01*
X77691428Y-63574285D01*
X77520000Y-63745714D01*
X77705714Y-63745714D01*
D11*
%TO.C,R2*%
X70030000Y-63435714D02*
X69930000Y-63292857D01*
X69858571Y-63435714D02*
X69858571Y-63135714D01*
X69972857Y-63135714D01*
X70001428Y-63150000D01*
X70015714Y-63164285D01*
X70030000Y-63192857D01*
X70030000Y-63235714D01*
X70015714Y-63264285D01*
X70001428Y-63278571D01*
X69972857Y-63292857D01*
X69858571Y-63292857D01*
X70144285Y-63164285D02*
X70158571Y-63150000D01*
X70187142Y-63135714D01*
X70258571Y-63135714D01*
X70287142Y-63150000D01*
X70301428Y-63164285D01*
X70315714Y-63192857D01*
X70315714Y-63221428D01*
X70301428Y-63264285D01*
X70130000Y-63435714D01*
X70315714Y-63435714D01*
%TO.C,C1*%
X79550000Y-63657142D02*
X79535714Y-63671428D01*
X79492857Y-63685714D01*
X79464285Y-63685714D01*
X79421428Y-63671428D01*
X79392857Y-63642857D01*
X79378571Y-63614285D01*
X79364285Y-63557142D01*
X79364285Y-63514285D01*
X79378571Y-63457142D01*
X79392857Y-63428571D01*
X79421428Y-63400000D01*
X79464285Y-63385714D01*
X79492857Y-63385714D01*
X79535714Y-63400000D01*
X79550000Y-63414285D01*
X79835714Y-63685714D02*
X79664285Y-63685714D01*
X79750000Y-63685714D02*
X79750000Y-63385714D01*
X79721428Y-63428571D01*
X79692857Y-63457142D01*
X79664285Y-63471428D01*
%TO.C,R1*%
X71780000Y-63355714D02*
X71680000Y-63212857D01*
X71608571Y-63355714D02*
X71608571Y-63055714D01*
X71722857Y-63055714D01*
X71751428Y-63070000D01*
X71765714Y-63084285D01*
X71780000Y-63112857D01*
X71780000Y-63155714D01*
X71765714Y-63184285D01*
X71751428Y-63198571D01*
X71722857Y-63212857D01*
X71608571Y-63212857D01*
X72065714Y-63355714D02*
X71894285Y-63355714D01*
X71980000Y-63355714D02*
X71980000Y-63055714D01*
X71951428Y-63098571D01*
X71922857Y-63127142D01*
X71894285Y-63141428D01*
%TO.C,J1*%
X80550000Y-58165714D02*
X80550000Y-58380000D01*
X80535714Y-58422857D01*
X80507142Y-58451428D01*
X80464285Y-58465714D01*
X80435714Y-58465714D01*
X80850000Y-58465714D02*
X80678571Y-58465714D01*
X80764285Y-58465714D02*
X80764285Y-58165714D01*
X80735714Y-58208571D01*
X80707142Y-58237142D01*
X80678571Y-58251428D01*
%TO.C,U1*%
X74331428Y-63475714D02*
X74331428Y-63718571D01*
X74345714Y-63747142D01*
X74360000Y-63761428D01*
X74388571Y-63775714D01*
X74445714Y-63775714D01*
X74474285Y-63761428D01*
X74488571Y-63747142D01*
X74502857Y-63718571D01*
X74502857Y-63475714D01*
X74802857Y-63775714D02*
X74631428Y-63775714D01*
X74717142Y-63775714D02*
X74717142Y-63475714D01*
X74688571Y-63518571D01*
X74660000Y-63547142D01*
X74631428Y-63561428D01*
D13*
%TO.C,C2*%
X78020000Y-61820580D02*
X78020000Y-61539420D01*
X77000000Y-61820580D02*
X77000000Y-61539420D01*
%TO.C,R2*%
X70702500Y-61767258D02*
X70702500Y-61292742D01*
X69657500Y-61767258D02*
X69657500Y-61292742D01*
%TO.C,C1*%
X80040000Y-61760580D02*
X80040000Y-61479420D01*
X79020000Y-61760580D02*
X79020000Y-61479420D01*
%TO.C,R1*%
X71247500Y-61727258D02*
X71247500Y-61252742D01*
X72292500Y-61727258D02*
X72292500Y-61252742D01*
%TO.C,J1*%
X79050000Y-56250000D02*
X80380000Y-56250000D01*
X77272000Y-56250000D02*
X77272000Y-58910000D01*
X77272000Y-56250000D02*
X68576000Y-56250000D01*
X77272000Y-58910000D02*
X68576000Y-58910000D01*
X80380000Y-56250000D02*
X80380000Y-57580000D01*
X68576000Y-56250000D02*
X68576000Y-58910000D01*
D14*
%TO.C,U1*%
X76020000Y-60360000D02*
X76020000Y-60415000D01*
X73020000Y-62860000D02*
X73575000Y-62860000D01*
X75465000Y-60360000D02*
X76020000Y-60360000D01*
X75465000Y-62860000D02*
X76020000Y-62860000D01*
X76020000Y-62805000D02*
X76020000Y-62860000D01*
X73020000Y-60360000D02*
X73575000Y-60360000D01*
X73020000Y-62805000D02*
X73020000Y-62860000D01*
X73020000Y-60360000D02*
X73020000Y-60415000D01*
D15*
X72595000Y-60710000D02*
G75*
G03*
X72595000Y-60710000I-75000J0D01*
G01*
%TD*%
%LPC*%
D16*
%TO.C,C2*%
X77510000Y-62455000D03*
X77510000Y-60905000D03*
%TD*%
D17*
%TO.C,R2*%
X70180000Y-62355000D03*
X70180000Y-60705000D03*
%TD*%
D16*
%TO.C,C1*%
X79530000Y-62395000D03*
X79530000Y-60845000D03*
%TD*%
D17*
%TO.C,R1*%
X71770000Y-60665000D03*
X71770000Y-62315000D03*
%TD*%
D18*
%TO.C,J1*%
X79050000Y-57580000D03*
D19*
X76002000Y-57580000D03*
X72954000Y-57580000D03*
X69906000Y-57580000D03*
%TD*%
D20*
%TO.C,U1*%
X73357500Y-60860000D03*
X73357500Y-61360000D03*
X73357500Y-61860000D03*
X73357500Y-62360000D03*
D21*
X74020000Y-62522500D03*
X74520000Y-62522500D03*
X75020000Y-62522500D03*
D20*
X75682500Y-62360000D03*
X75682500Y-61860000D03*
X75682500Y-61360000D03*
X75682500Y-60860000D03*
D21*
X75020000Y-60697500D03*
X74520000Y-60697500D03*
X74020000Y-60697500D03*
%TD*%
M02*
