%TF.GenerationSoftware,KiCad,Pcbnew,(6.0.2-0)*%
%TF.CreationDate,2022-03-19T15:32:58-04:00*%
%TF.ProjectId,IMU_BB_Rev2,494d555f-4242-45f5-9265-76322e6b6963,rev?*%
%TF.SameCoordinates,Original*%
%TF.FileFunction,Copper,L3,Inr*%
%TF.FilePolarity,Positive*%
%FSLAX46Y46*%
G04 Gerber Fmt 4.6, Leading zero omitted, Abs format (unit mm)*
G04 Created by KiCad (PCBNEW (6.0.2-0)) date 2022-03-19 15:32:58*
%MOMM*%
%LPD*%
G01*
G04 APERTURE LIST*
%TA.AperFunction,ComponentPad*%
%ADD10R,1.700000X1.700000*%
%TD*%
%TA.AperFunction,ComponentPad*%
%ADD11O,1.700000X1.700000*%
%TD*%
%TA.AperFunction,ViaPad*%
%ADD12C,0.600000*%
%TD*%
G04 APERTURE END LIST*
D10*
%TO.N,GND*%
%TO.C,J1*%
X79050000Y-57580000D03*
D11*
%TO.N,+3V3*%
X76002000Y-57580000D03*
%TO.N,/IMU_A_SCL*%
X72954000Y-57580000D03*
%TO.N,/IMU_A_SDA*%
X69906000Y-57580000D03*
%TD*%
D12*
%TO.N,/IMU_A_SCL*%
X70960000Y-63280000D03*
X74585106Y-59629859D03*
%TO.N,+3V3*%
X73990607Y-63301327D03*
X70930000Y-59810000D03*
X76575000Y-59970000D03*
%TO.N,GND*%
X72830000Y-59840000D03*
X76500000Y-63260000D03*
%TD*%
%TA.AperFunction,Conductor*%
%TO.N,+3V3*%
G36*
X71431888Y-56460628D02*
G01*
X71849633Y-56460950D01*
X71917737Y-56481005D01*
X71964189Y-56534696D01*
X71974239Y-56604978D01*
X71940630Y-56674000D01*
X71929848Y-56685283D01*
X71894629Y-56722138D01*
X71891715Y-56726410D01*
X71891714Y-56726411D01*
X71879409Y-56744450D01*
X71768743Y-56906680D01*
X71674688Y-57109305D01*
X71614989Y-57324570D01*
X71591251Y-57546695D01*
X71591548Y-57551848D01*
X71591548Y-57551851D01*
X71597011Y-57646590D01*
X71604110Y-57769715D01*
X71605247Y-57774761D01*
X71605248Y-57774767D01*
X71619449Y-57837778D01*
X71653222Y-57987639D01*
X71737266Y-58194616D01*
X71853987Y-58385088D01*
X72000250Y-58553938D01*
X72172126Y-58696632D01*
X72365000Y-58809338D01*
X72369825Y-58811180D01*
X72369826Y-58811181D01*
X72502532Y-58861857D01*
X72559035Y-58904845D01*
X72583328Y-58971556D01*
X72567697Y-59040811D01*
X72517106Y-59090621D01*
X72498192Y-59098843D01*
X72483579Y-59103818D01*
X72464379Y-59115630D01*
X72335095Y-59195166D01*
X72335092Y-59195168D01*
X72329088Y-59198862D01*
X72324053Y-59203793D01*
X72324050Y-59203795D01*
X72204525Y-59320843D01*
X72199493Y-59325771D01*
X72101235Y-59478238D01*
X72098826Y-59484858D01*
X72098824Y-59484861D01*
X72095632Y-59493631D01*
X72039197Y-59648685D01*
X72016463Y-59828640D01*
X72034163Y-60009160D01*
X72091418Y-60181273D01*
X72095065Y-60187295D01*
X72095066Y-60187297D01*
X72147012Y-60273070D01*
X72185380Y-60336424D01*
X72190269Y-60341487D01*
X72190270Y-60341488D01*
X72220685Y-60372983D01*
X72311382Y-60466902D01*
X72463159Y-60566222D01*
X72469763Y-60568678D01*
X72469765Y-60568679D01*
X72626558Y-60626990D01*
X72626560Y-60626990D01*
X72633168Y-60629448D01*
X72716995Y-60640633D01*
X72805980Y-60652507D01*
X72805984Y-60652507D01*
X72812961Y-60653438D01*
X72819972Y-60652800D01*
X72819976Y-60652800D01*
X72962459Y-60639832D01*
X72993600Y-60636998D01*
X73000302Y-60634820D01*
X73000304Y-60634820D01*
X73159409Y-60583124D01*
X73159412Y-60583123D01*
X73166108Y-60580947D01*
X73321912Y-60488069D01*
X73453266Y-60362982D01*
X73553643Y-60211902D01*
X73618055Y-60042338D01*
X73619034Y-60035369D01*
X73619037Y-60035359D01*
X73619965Y-60028754D01*
X73649254Y-59964081D01*
X73708859Y-59925509D01*
X73779855Y-59925286D01*
X73839702Y-59963481D01*
X73852511Y-59981018D01*
X73940486Y-60126283D01*
X73945375Y-60131346D01*
X73945376Y-60131347D01*
X73999407Y-60187297D01*
X74066488Y-60256761D01*
X74072384Y-60260619D01*
X74195965Y-60341488D01*
X74218265Y-60356081D01*
X74224869Y-60358537D01*
X74224871Y-60358538D01*
X74381664Y-60416849D01*
X74381666Y-60416849D01*
X74388274Y-60419307D01*
X74472101Y-60430492D01*
X74561086Y-60442366D01*
X74561090Y-60442366D01*
X74568067Y-60443297D01*
X74575078Y-60442659D01*
X74575082Y-60442659D01*
X74717565Y-60429691D01*
X74748706Y-60426857D01*
X74755408Y-60424679D01*
X74755410Y-60424679D01*
X74914515Y-60372983D01*
X74914518Y-60372982D01*
X74921214Y-60370806D01*
X75077018Y-60277928D01*
X75208372Y-60152841D01*
X75308749Y-60001761D01*
X75350529Y-59891776D01*
X75370661Y-59838779D01*
X75370662Y-59838777D01*
X75373161Y-59832197D01*
X75377824Y-59799019D01*
X75397854Y-59656498D01*
X75397854Y-59656495D01*
X75398405Y-59652576D01*
X75398722Y-59629859D01*
X75378503Y-59449604D01*
X75376186Y-59442950D01*
X75321170Y-59284965D01*
X75321168Y-59284962D01*
X75318851Y-59278307D01*
X75222732Y-59124483D01*
X75202211Y-59103818D01*
X75099884Y-59000774D01*
X75099880Y-59000771D01*
X75094921Y-58995777D01*
X75083803Y-58988721D01*
X75016277Y-58945868D01*
X74941772Y-58898586D01*
X74900155Y-58883767D01*
X74777531Y-58840102D01*
X74777526Y-58840101D01*
X74770896Y-58837740D01*
X74763908Y-58836907D01*
X74763905Y-58836906D01*
X74640804Y-58822227D01*
X74590786Y-58816263D01*
X74583783Y-58816999D01*
X74583782Y-58816999D01*
X74417394Y-58834487D01*
X74417392Y-58834488D01*
X74410394Y-58835223D01*
X74238685Y-58893677D01*
X74209890Y-58911392D01*
X74090201Y-58985025D01*
X74090198Y-58985027D01*
X74084194Y-58988721D01*
X74079159Y-58993652D01*
X74079156Y-58993654D01*
X73980137Y-59090621D01*
X73954599Y-59115630D01*
X73856341Y-59268097D01*
X73853932Y-59274717D01*
X73853930Y-59274720D01*
X73837143Y-59320843D01*
X73794303Y-59438544D01*
X73793419Y-59445541D01*
X73792316Y-59450101D01*
X73756858Y-59511609D01*
X73693775Y-59544183D01*
X73623096Y-59537481D01*
X73567260Y-59493631D01*
X73562994Y-59487246D01*
X73532562Y-59438544D01*
X73467626Y-59334624D01*
X73453941Y-59320843D01*
X73344778Y-59210915D01*
X73344774Y-59210912D01*
X73339815Y-59205918D01*
X73328697Y-59198862D01*
X73226837Y-59134220D01*
X73180038Y-59080831D01*
X73169533Y-59010616D01*
X73198657Y-58945868D01*
X73258143Y-58907149D01*
X73410063Y-58861571D01*
X73446425Y-58850662D01*
X73446427Y-58850661D01*
X73451384Y-58849174D01*
X73651994Y-58750896D01*
X73833860Y-58621173D01*
X73992096Y-58463489D01*
X74051594Y-58380689D01*
X74119435Y-58286277D01*
X74122453Y-58282077D01*
X74146263Y-58233902D01*
X74219136Y-58086453D01*
X74219137Y-58086451D01*
X74221430Y-58081811D01*
X74286370Y-57868069D01*
X74289017Y-57847966D01*
X74670257Y-57847966D01*
X74700565Y-57982446D01*
X74703645Y-57992275D01*
X74783770Y-58189603D01*
X74788413Y-58198794D01*
X74899694Y-58380388D01*
X74905777Y-58388699D01*
X75045213Y-58549667D01*
X75052580Y-58556883D01*
X75216434Y-58692916D01*
X75224881Y-58698831D01*
X75408756Y-58806279D01*
X75418042Y-58810729D01*
X75617001Y-58886703D01*
X75626899Y-58889579D01*
X75730250Y-58910606D01*
X75744299Y-58909410D01*
X75748000Y-58899065D01*
X75748000Y-58898517D01*
X76256000Y-58898517D01*
X76260064Y-58912359D01*
X76273478Y-58914393D01*
X76280184Y-58913534D01*
X76290262Y-58911392D01*
X76494255Y-58850191D01*
X76503842Y-58846433D01*
X76695095Y-58752739D01*
X76703945Y-58747464D01*
X76877328Y-58623792D01*
X76885200Y-58617139D01*
X77036052Y-58466812D01*
X77042730Y-58458965D01*
X77167003Y-58286020D01*
X77172313Y-58277183D01*
X77266670Y-58086267D01*
X77270469Y-58076672D01*
X77332377Y-57872910D01*
X77334555Y-57862837D01*
X77335986Y-57851962D01*
X77333775Y-57837778D01*
X77320617Y-57834000D01*
X76274115Y-57834000D01*
X76258876Y-57838475D01*
X76257671Y-57839865D01*
X76256000Y-57847548D01*
X76256000Y-58898517D01*
X75748000Y-58898517D01*
X75748000Y-57852115D01*
X75743525Y-57836876D01*
X75742135Y-57835671D01*
X75734452Y-57834000D01*
X74685225Y-57834000D01*
X74671694Y-57837973D01*
X74670257Y-57847966D01*
X74289017Y-57847966D01*
X74315529Y-57646590D01*
X74317156Y-57580000D01*
X74298852Y-57357361D01*
X74244431Y-57140702D01*
X74155354Y-56935840D01*
X74034014Y-56748277D01*
X74030540Y-56744459D01*
X74030533Y-56744450D01*
X73965930Y-56673453D01*
X73934878Y-56609607D01*
X73943272Y-56539109D01*
X73988449Y-56484340D01*
X74059220Y-56462653D01*
X74896081Y-56463298D01*
X74964186Y-56483353D01*
X75010638Y-56537044D01*
X75020688Y-56607326D01*
X74987078Y-56676349D01*
X74946590Y-56718717D01*
X74940104Y-56726727D01*
X74820098Y-56902649D01*
X74815000Y-56911623D01*
X74725338Y-57104783D01*
X74721775Y-57114470D01*
X74666389Y-57314183D01*
X74667912Y-57322607D01*
X74680292Y-57326000D01*
X77320344Y-57326000D01*
X77333875Y-57322027D01*
X77335180Y-57312947D01*
X77293214Y-57145875D01*
X77289894Y-57136124D01*
X77204972Y-56940814D01*
X77200105Y-56931739D01*
X77084426Y-56752926D01*
X77078136Y-56744757D01*
X77015391Y-56675802D01*
X76984339Y-56611956D01*
X76992733Y-56541458D01*
X77037910Y-56486689D01*
X77108681Y-56465002D01*
X77238051Y-56465102D01*
X77576587Y-56465363D01*
X77644693Y-56485418D01*
X77691144Y-56539109D01*
X77701194Y-56609391D01*
X77700241Y-56614387D01*
X77698255Y-56619684D01*
X77697402Y-56627534D01*
X77697402Y-56627535D01*
X77692159Y-56675802D01*
X77691500Y-56681866D01*
X77691500Y-58478134D01*
X77698255Y-58540316D01*
X77749385Y-58676705D01*
X77836739Y-58793261D01*
X77953295Y-58880615D01*
X78089684Y-58931745D01*
X78151866Y-58938500D01*
X79948134Y-58938500D01*
X80010316Y-58931745D01*
X80146705Y-58880615D01*
X80263261Y-58793261D01*
X80268642Y-58786081D01*
X80273258Y-58781465D01*
X80335570Y-58747439D01*
X80406385Y-58752504D01*
X80463221Y-58795051D01*
X80488032Y-58861571D01*
X80488353Y-58870705D01*
X80482799Y-63302717D01*
X80482795Y-63305671D01*
X80462707Y-63373767D01*
X80408994Y-63420192D01*
X80356698Y-63431513D01*
X77437552Y-63429269D01*
X77369447Y-63409215D01*
X77322995Y-63355523D01*
X77313593Y-63290675D01*
X77312444Y-63290587D01*
X77312748Y-63286641D01*
X77313299Y-63282717D01*
X77313452Y-63271738D01*
X77313561Y-63263962D01*
X77313561Y-63263957D01*
X77313616Y-63260000D01*
X77293397Y-63079745D01*
X77291080Y-63073091D01*
X77236064Y-62915106D01*
X77236062Y-62915103D01*
X77233745Y-62908448D01*
X77137626Y-62754624D01*
X77123941Y-62740843D01*
X77014778Y-62630915D01*
X77014774Y-62630912D01*
X77009815Y-62625918D01*
X76998697Y-62618862D01*
X76950538Y-62588300D01*
X76856666Y-62528727D01*
X76827463Y-62518328D01*
X76692425Y-62470243D01*
X76692420Y-62470242D01*
X76685790Y-62467881D01*
X76678802Y-62467048D01*
X76678799Y-62467047D01*
X76555698Y-62452368D01*
X76505680Y-62446404D01*
X76498677Y-62447140D01*
X76498676Y-62447140D01*
X76332288Y-62464628D01*
X76332286Y-62464629D01*
X76325288Y-62465364D01*
X76153579Y-62523818D01*
X76115065Y-62547512D01*
X76005095Y-62615166D01*
X76005092Y-62615168D01*
X75999088Y-62618862D01*
X75994053Y-62623793D01*
X75994050Y-62623795D01*
X75874525Y-62740843D01*
X75869493Y-62745771D01*
X75771235Y-62898238D01*
X75768826Y-62904858D01*
X75768824Y-62904861D01*
X75761545Y-62924861D01*
X75709197Y-63068685D01*
X75686463Y-63248640D01*
X75690055Y-63285275D01*
X75690473Y-63289534D01*
X75677214Y-63359281D01*
X75628351Y-63410789D01*
X75564977Y-63427830D01*
X71899266Y-63425012D01*
X71831161Y-63404958D01*
X71784709Y-63351266D01*
X71773375Y-63297252D01*
X71773561Y-63283961D01*
X71773561Y-63283957D01*
X71773616Y-63280000D01*
X71753397Y-63099745D01*
X71751080Y-63093091D01*
X71696064Y-62935106D01*
X71696062Y-62935103D01*
X71693745Y-62928448D01*
X71597626Y-62774624D01*
X71577765Y-62754624D01*
X71474778Y-62650915D01*
X71474774Y-62650912D01*
X71469815Y-62645918D01*
X71458697Y-62638862D01*
X71410538Y-62608300D01*
X71316666Y-62548727D01*
X71271112Y-62532506D01*
X71152425Y-62490243D01*
X71152420Y-62490242D01*
X71145790Y-62487881D01*
X71138802Y-62487048D01*
X71138799Y-62487047D01*
X71015698Y-62472368D01*
X70965680Y-62466404D01*
X70958677Y-62467140D01*
X70958676Y-62467140D01*
X70792288Y-62484628D01*
X70792286Y-62484629D01*
X70785288Y-62485364D01*
X70613579Y-62543818D01*
X70607575Y-62547512D01*
X70465095Y-62635166D01*
X70465092Y-62635168D01*
X70459088Y-62638862D01*
X70454053Y-62643793D01*
X70454050Y-62643795D01*
X70343869Y-62751693D01*
X70329493Y-62765771D01*
X70231235Y-62918238D01*
X70228826Y-62924858D01*
X70228824Y-62924861D01*
X70176476Y-63068685D01*
X70169197Y-63088685D01*
X70146463Y-63268640D01*
X70147151Y-63275653D01*
X70148094Y-63285275D01*
X70134834Y-63355023D01*
X70085971Y-63406529D01*
X70022598Y-63423570D01*
X68617086Y-63422489D01*
X68548981Y-63402435D01*
X68502529Y-63348743D01*
X68491185Y-63295857D01*
X68491212Y-63290587D01*
X68507103Y-60120260D01*
X68515937Y-58357896D01*
X68536280Y-58289877D01*
X68590168Y-58243653D01*
X68660492Y-58233902D01*
X68724924Y-58263718D01*
X68749368Y-58292694D01*
X68803287Y-58380684D01*
X68803291Y-58380689D01*
X68805987Y-58385088D01*
X68952250Y-58553938D01*
X69124126Y-58696632D01*
X69317000Y-58809338D01*
X69321825Y-58811180D01*
X69321826Y-58811181D01*
X69382858Y-58834487D01*
X69525692Y-58889030D01*
X69530760Y-58890061D01*
X69530763Y-58890062D01*
X69614749Y-58907149D01*
X69744597Y-58933567D01*
X69749772Y-58933757D01*
X69749774Y-58933757D01*
X69962673Y-58941564D01*
X69962677Y-58941564D01*
X69967837Y-58941753D01*
X69972957Y-58941097D01*
X69972959Y-58941097D01*
X70184288Y-58914025D01*
X70184289Y-58914025D01*
X70189416Y-58913368D01*
X70194366Y-58911883D01*
X70398429Y-58850661D01*
X70398434Y-58850659D01*
X70403384Y-58849174D01*
X70603994Y-58750896D01*
X70785860Y-58621173D01*
X70944096Y-58463489D01*
X71003594Y-58380689D01*
X71071435Y-58286277D01*
X71074453Y-58282077D01*
X71098263Y-58233902D01*
X71171136Y-58086453D01*
X71171137Y-58086451D01*
X71173430Y-58081811D01*
X71238370Y-57868069D01*
X71267529Y-57646590D01*
X71269156Y-57580000D01*
X71250852Y-57357361D01*
X71196431Y-57140702D01*
X71107354Y-56935840D01*
X70986014Y-56748277D01*
X70966405Y-56726727D01*
X70915792Y-56671103D01*
X70884740Y-56607257D01*
X70893135Y-56536758D01*
X70938311Y-56481990D01*
X71009082Y-56460303D01*
X71431888Y-56460628D01*
G37*
%TD.AperFunction*%
%TD*%
M02*
